#!OML:ASF F:\VICON\USERDATA\INSTALL\rory3\rory3.ASF
:FULLY-SPECIFIED
:DEGREES
3206
root -10.4686 17.7976 12.0906 1083.95 139.648 -3.03469
lowerback 14.2925 -2.2106 -1.29608
upperback 1.20073 -2.60964 4.30312
thorax -6.47707 -1.08931 5.82752
lowerneck -3.0342 -15.0591 -10.526
upperneck 39.5657 -20.157 8.58165
head 17.131 -7.96116 2.66551
rclavicle -1.59028e-014 3.81667e-014
rhumerus -34.143 -9.1685 -78.0153
rradius 38.7954
rwrist 1.50877
rhand -15.7217 6.91849
rfingers 7.12502
rthumb 10.4686 -22.8009
lclavicle -1.59028e-014 3.81667e-014
lhumerus -33.5007 8.71447 79.2218
lradius 44.7831
lwrist -2.21483
lhand -19.8875 27.3839
lfingers 7.12502
lthumb 6.44839 57.2657
rfemur -5.71066 14.8401 19.0774
rtibia 25.2376
rfoot -20.5343 6.11685
rtoes 5.52888
lfemur -24.6796 -7.08804 -13.4919
ltibia 21.7955
lfoot 172.316 -180.824
ltoes -11.6733
3207
root -10.4934 17.8041 12.1889 1083.95 139.924 -2.9046
lowerback 14.3558 -2.14193 -1.17753
upperback 1.32905 -2.49421 4.28546
thorax -6.39337 -1.03633 5.71615
lowerneck -3.23513 -14.7214 -10.3986
upperneck 39.5963 -19.6013 8.4959
head 17.0728 -7.70668 2.71011
rclavicle -2.50469e-014 -3.18055e-014
rhumerus -33.7715 -9.22278 -78.0333
rradius 38.576
rwrist 1.63698
rhand -15.7603 6.91171
rfingers 7.12502
rthumb 10.4314 -22.8095
lclavicle -2.50469e-014 -3.18055e-014
lhumerus -33.3677 8.80527 79.2405
lradius 44.3985
lwrist -2.02246
lhand -19.6025 26.5088
lfingers 7.12502
lthumb 6.72359 56.382
rfemur -6.17842 14.2072 19.2552
rtibia 25.6548
rfoot -20.433 6.43788
rtoes 5.5913
lfemur -24.6329 -6.56821 -13.6299
ltibia 22.6244
lfoot 172.037 -179.334
ltoes -9.64269
3208
root -10.5155 17.8122 12.287 1083.76 140.396 -3.00761
lowerback 14.3236 -2.15102 -1.20487
upperback 1.48193 -2.51128 4.23533
thorax -6.2113 -1.04853 5.67178
lowerneck -3.35323 -14.3546 -10.499
upperneck 39.597 -19.0166 8.55213
head 17.0351 -7.46093 2.86084
rclavicle -1.19271e-014 -1.27222e-014
rhumerus -33.4723 -9.1764 -78.1053
rradius 38.5833
rwrist 1.54416
rhand -16.0466 6.89887
rfingers 7.12502
rthumb 10.1552 -22.836
lclavicle -1.19271e-014 -1.27222e-014
lhumerus -33.238 8.73237 79.3669
lradius 44.0938
lwrist -1.90141
lhand -19.1975 26.6081
lfingers 7.12502
lthumb 7.11448 56.4686
rfemur -6.50747 13.5279 19.2946
rtibia 25.9259
rfoot -20.1669 6.72575
rtoes 6.51091
lfemur -24.6434 -6.03542 -14.0413
ltibia 23.6136
lfoot 171.63 -178.122
ltoes -8.18786
3209
root -10.5328 17.8222 12.3806 1083.47 140.876 -3.22796
lowerback 13.997 -2.10517 -1.14558
upperback 1.79478 -2.45581 4.06475
thorax -5.71324 -1.03783 5.41136
lowerneck -3.54888 -14.0795 -10.5958
upperneck 39.6015 -18.5967 8.69127
head 17.0571 -7.27002 3.01011
rclavicle 1.35571e-013 -1.74931e-014
rhumerus -33.0615 -9.73993 -78.1603
rradius 38.579
rwrist 1.65597
rhand -16.2619 7.04413
rfingers 7.12502
rthumb 9.94748 -22.7008
lclavicle 1.35571e-013 -1.74931e-014
lhumerus -32.833 8.27777 79.5933
lradius 43.84
lwrist -1.86041
lhand -18.9665 27.4539
lfingers 7.12502
lthumb 7.33753 57.3066
rfemur -6.71128 13.0244 19.272
rtibia 26.078
rfoot -19.7353 6.9042
rtoes 8.15093
lfemur -24.6024 -5.60053 -14.5915
ltibia 24.684
lfoot 171.243 -176.787
ltoes -8.88037
3210
root -10.5466 17.8311 12.4724 1083.23 141.378 -3.34439
lowerback 13.9188 -2.07763 -1.23729
upperback 1.9456 -2.43447 4.01323
thorax -5.51011 -1.03013 5.39395
lowerneck -3.79989 -13.8137 -10.5318
upperneck 39.8333 -18.0965 8.52164
head 17.1341 -7.04007 3.01838
rclavicle 1.32391e-013 -4.77083e-014
rhumerus -32.951 -9.97995 -78.1361
rradius 38.7077
rwrist 1.61985
rhand -16.3765 6.87037
rfingers 7.12502
rthumb 9.83696 -22.8798
lclavicle 1.32391e-013 -4.77083e-014
lhumerus -32.7277 8.02651 79.8348
lradius 43.6483
lwrist -2.11529
lhand -18.5128 28.6455
lfingers 7.12502
lthumb 7.77539 58.4826
rfemur -6.82037 12.7089 19.3647
rtibia 26.1684
rfoot -19.3571 6.81406
rtoes 9.23585
lfemur -24.4826 -5.1373 -15.0636
ltibia 25.792
lfoot 170.939 -175.667
ltoes -9.43394
3211
root -10.5585 17.8424 12.5609 1083.11 141.959 -3.32358
lowerback 13.8975 -2.0677 -1.26266
upperback 2.00268 -2.42401 3.99459
thorax -5.43847 -1.02552 5.38302
lowerneck -4.03173 -13.5508 -10.4159
upperneck 40.1151 -17.5984 8.34713
head 17.2302 -6.79893 3.02032
rclavicle 1.06549e-013 -6.20208e-014
rhumerus -33.035 -10.1779 -78.0987
rradius 38.9456
rwrist 1.46432
rhand -16.3903 6.65499
rfingers 7.12502
rthumb 9.82364 -23.0959
lclavicle 1.06549e-013 -6.20208e-014
lhumerus -32.7943 7.85267 80.0462
lradius 43.3187
lwrist -2.97919
lhand -18.6201 28.6433
lfingers 7.12502
lthumb 7.67189 58.4842
rfemur -6.897 12.4867 19.5754
rtibia 26.2159
rfoot -19.2323 6.46409
rtoes 9.6813
lfemur -24.3987 -4.51946 -15.4722
ltibia 26.962
lfoot 170.557 -174.987
ltoes -8.65075
3212
root -10.5682 17.8521 12.6496 1082.99 142.713 -3.32584
lowerback 13.8891 -2.14074 -1.35521
upperback 2.01398 -2.53003 4.02367
thorax -5.40551 -1.07533 5.48488
lowerneck -4.12292 -13.2546 -10.3933
upperneck 40.3547 -17.0108 8.11215
head 17.2602 -6.55041 3.03291
rclavicle 1.19271e-015 -3.18055e-015
rhumerus -33.1633 -10.3109 -78.0129
rradius 39.1983
rwrist 1.34621
rhand -16.2976 6.85316
rfingers 7.12502
rthumb 9.91304 -22.8934
lclavicle 1.19271e-015 -3.18055e-015
lhumerus -32.9783 7.79745 80.2384
lradius 42.8726
lwrist -4.03434
lhand -19.2709 27.7447
lfingers 7.12502
lthumb 7.04362 57.6075
rfemur -6.90735 12.2018 19.7929
rtibia 26.2538
rfoot -19.3451 5.98536
rtoes 9.76139
lfemur -24.3043 -3.8568 -15.9166
ltibia 28.1962
lfoot 170.137 -174.659
ltoes -8.35267
3213
root -10.5731 17.855 12.7365 1082.89 143.614 -3.26486
lowerback 13.904 -2.2774 -1.38499
upperback 1.96331 -2.70936 4.07557
thorax -5.44495 -1.16021 5.59212
lowerneck -4.15753 -12.9768 -10.4189
upperneck 40.6153 -16.4074 7.78839
head 17.2827 -6.31408 3.01828
rclavicle -4.96962e-014 1.59028e-014
rhumerus -33.4697 -10.1696 -77.9537
rradius 39.6065
rwrist 0.89671
rhand -16.4538 6.6866
rfingers 7.12502
rthumb 9.76233 -23.0671
lclavicle -4.96962e-014 1.59028e-014
lhumerus -33.2434 7.6414 80.4023
lradius 42.4009
lwrist -5.03368
lhand -19.7898 26.7515
lfingers 7.12502
lthumb 6.54275 56.6304
rfemur -6.899 11.8718 20.1093
rtibia 26.2903
rfoot -19.328 5.34477
rtoes 9.5287
lfemur -24.2289 -3.17988 -16.2819
ltibia 29.478
lfoot 169.881 -174.612
ltoes -8.77075
3214
root -10.5718 17.8562 12.8198 1082.93 144.536 -3.06641
lowerback 13.7691 -2.40276 -1.32546
upperback 1.91428 -2.85972 4.15839
thorax -5.40567 -1.23428 5.66731
lowerneck -4.27041 -12.7435 -10.4672
upperneck 40.948 -15.8538 7.45704
head 17.3811 -6.09562 2.99146
rclavicle 3.4191e-014 -5.08889e-014
rhumerus -33.8851 -9.94369 -77.9123
rradius 40.1568
rwrist 0.244714
rhand -16.7613 6.30556
rfingers 7.12502
rthumb 9.46568 -23.4619
lclavicle 3.4191e-014 -5.08889e-014
lhumerus -33.4469 7.39815 80.6269
lradius 41.9383
lwrist -6.07456
lhand -20.371 25.9939
lfingers 7.12502
lthumb 5.98161 55.8894
rfemur -6.94579 11.5206 20.5751
rtibia 26.3359
rfoot -19.2493 4.4817
rtoes 8.72063
lfemur -24.2052 -2.56256 -16.4902
ltibia 30.8014
lfoot 169.77 -174.584
ltoes -9.54527
3215
root -10.5694 17.8585 12.9009 1082.96 145.418 -2.91334
lowerback 13.6062 -2.46474 -1.36646
upperback 1.87624 -2.94296 4.23877
thorax -5.34097 -1.27471 5.78311
lowerneck -4.4326 -12.5701 -10.3918
upperneck 41.2943 -15.3907 7.08654
head 17.4955 -5.8981 2.90687
rclavicle -3.77691e-014 3.97569e-014
rhumerus -34.2718 -9.91194 -77.8405
rradius 40.6481
rwrist -0.210781
rhand -16.8523 6.25327
rfingers 7.12502
rthumb 9.37781 -23.5181
lclavicle -3.77691e-014 3.97569e-014
lhumerus -33.544 7.03618 80.9556
lradius 41.7446
lwrist -6.44775
lhand -19.9461 26.9885
lfingers 7.12502
lthumb 6.39185 56.8721
rfemur -6.96876 10.9881 20.9963
rtibia 26.3121
rfoot -19.0981 3.68665
rtoes 7.67789
lfemur -24.151 -1.9829 -16.7119
ltibia 32.1875
lfoot 169.469 -174.736
ltoes -9.82149
